<svg width="33" height="32" viewBox="0 0 33 32" fill="none" xmlns="http://www.w3.org/2000/svg">
<path d="M24.6667 2.66669H8.66669C6.45335 2.66669 4.66669 4.44002 4.66669 6.62669V21.1734C4.66669 23.36 6.45335 25.1334 8.66669 25.1334H9.68002C10.7467 25.1334 11.76 25.5467 12.5067 26.2934L14.7867 28.5467C15.8267 29.5734 17.52 29.5734 18.56 28.5467L20.84 26.2934C21.5867 25.5467 22.6134 25.1334 23.6667 25.1334H24.6667C26.88 25.1334 28.6667 23.36 28.6667 21.1734V6.62669C28.6667 4.44002 26.88 2.66669 24.6667 2.66669ZM14.5067 17.3467C15.0534 17.3467 15.5067 17.8 15.5067 18.3467C15.5067 18.8934 15.0534 19.3467 14.5067 19.3467H10.9334C10.3467 19.3467 9.80002 19.0667 9.45335 18.5867C9.12002 18.1334 9.04002 17.5734 9.20002 17.04C9.66669 15.6134 10.8134 14.84 11.8267 14.1467C12.8934 13.4267 13.4934 12.9734 13.4934 12.2C13.4934 11.5067 12.9334 10.9467 12.24 10.9467C11.5467 10.9467 11 11.52 11 12.2134C11 12.76 10.5467 13.2134 10 13.2134C9.45335 13.2134 9.00002 12.76 9.00002 12.2134C9.00002 10.4267 10.4534 8.96002 12.2534 8.96002C14.0534 8.96002 15.5067 10.4134 15.5067 12.2134C15.5067 14.0934 14.0934 15.0534 12.96 15.8267C12.2534 16.3067 11.5867 16.76 11.2534 17.36H14.5067V17.3467ZM23.3334 17.44H23.0534V18.36C23.0534 18.9067 22.6 19.36 22.0534 19.36C21.5067 19.36 21.0534 18.9067 21.0534 18.36V17.44H18.44C18.44 17.44 18.44 17.44 18.4267 17.44C17.7734 17.44 17.1734 17.0934 16.84 16.5334C16.5067 15.96 16.5067 15.2534 16.84 14.6934C17.7467 13.1334 18.8 11.36 19.76 9.81335C20.1867 9.13335 21 8.82669 21.76 9.04002C22.52 9.26669 23.0534 9.96002 23.04 10.76V15.4534H23.3334C23.88 15.4534 24.3334 15.9067 24.3334 16.4534C24.3334 17 23.88 17.44 23.3334 17.44Z" fill="#9B51E0"/>
<path d="M21.0534 15.44V11.52C20.2667 12.8 19.4534 14.1734 18.72 15.4267H21.0534V15.44Z" fill="#9B51E0"/>
</svg>
