<svg width="24" height="24" viewBox="0 0 24 24" fill="none" xmlns="http://www.w3.org/2000/svg">
<path d="M20.71 2H7.28601C7.1439 2.0098 7.01014 2.07069 6.90942 2.17141C6.80869 2.27213 6.74781 2.40589 6.73801 2.548V5.288L8.65601 6.658H12.491V7.205C12.1757 7.22395 11.8675 7.30655 11.5849 7.44782C11.3024 7.5891 11.0514 7.78611 10.847 8.027L4.00001 15.151C3.62931 15.5007 3.33897 15.9267 3.14905 16.3996C2.95913 16.8725 2.87416 17.381 2.90001 17.89C2.89565 18.4225 3.01754 18.9484 3.25568 19.4247C3.49381 19.9009 3.84142 20.314 4.27001 20.63C5.16425 21.4705 6.33349 21.9574 7.56001 22C8.45248 22.0225 9.32464 21.7316 10.025 21.178L16.875 14.329C17.5614 13.5112 17.9142 12.4647 17.8633 11.3982C17.8123 10.3317 17.3612 9.32366 16.6 8.575C16.326 8.301 16.052 8.301 15.778 7.753V6.658H19.34L20.983 5.288V2.548C21.257 2.274 20.984 2 20.71 2ZM5.09401 20.082C4.56918 19.4429 4.19524 18.6936 4.00001 17.89C3.97387 17.2089 4.16586 16.5373 4.54801 15.973C5.09601 15.699 5.64801 15.151 6.19201 15.151H6.46601C7.30862 15.2303 8.09083 15.6228 8.65801 16.251C9.33625 16.7327 9.80101 17.4588 9.95435 18.2765C10.1077 19.0941 9.93763 19.9393 9.48001 20.634C8.65801 21.734 6.46601 21.456 5.09601 20.086M13.587 8.3V6.11C13.5968 5.96789 13.6577 5.83413 13.7584 5.73341C13.8591 5.63269 13.9929 5.5718 14.135 5.562C14.409 5.562 14.409 5.836 14.409 6.11V8.575C14.1787 8.38448 13.8856 8.28577 13.587 8.3ZM20.162 4.192H7.83401V3.1H20.162V4.192Z" fill="black"/>
</svg>
