<svg width="20" height="19" viewBox="0 0 20 19" fill="none" xmlns="http://www.w3.org/2000/svg">
<path d="M0 19.0004V17.0004C0 17.0004 5 15.0004 10 15.0004C15 15.0004 20 17.0004 20 17.0004V19.0004H0ZM9.3 6.10042C8.1 2.20042 2 3.10042 2 3.10042C2 3.10042 2.2 10.9004 7.9 9.70042C7.5 6.80042 6 6.00042 6 6.00042C8.8 6.00042 9 9.40042 9 9.40042V14.0004H11V9.80042C11 9.80042 11 5.90042 14 4.90042C14 4.90042 12 7.90042 12 9.90042C19 10.6004 19 1.00042 19 1.00042C19 1.00042 10.1 0.000419617 9.3 6.10042Z" fill="#008000"/>
</svg>
