<svg width="25" height="24" viewBox="0 0 25 24" fill="none" xmlns="http://www.w3.org/2000/svg">
<path d="M18.3334 10V7C18.3334 6.46957 18.1227 5.96086 17.7476 5.58579C17.3725 5.21071 16.8638 5 16.3334 5H8.33337C7.80294 5 7.29423 5.21071 6.91916 5.58579C6.54409 5.96086 6.33337 6.46957 6.33337 7V10C5.80294 10 5.29423 10.2107 4.91916 10.5858C4.54409 10.9609 4.33337 11.4696 4.33337 12V17H5.66337L6.33337 19H7.33337L8.00337 17H16.6634L17.3334 19H18.3334L19.0034 17H20.3334V12C20.3334 11.4696 20.1227 10.9609 19.7476 10.5858C19.3725 10.2107 18.8638 10 18.3334 10ZM11.3334 10H8.33337V7H11.3334M16.3334 10H13.3334V7H16.3334V10Z" fill="#5318BB"/>
</svg>
