<svg width="24" height="24" viewBox="0 0 24 24" fill="none" xmlns="http://www.w3.org/2000/svg">
<path d="M19.5 7.49988L18.01 8.98988L15.01 5.98988L16.5 4.49988C16.92 4.07988 17.46 3.87988 18 3.87988C18.54 3.87988 19.08 4.07988 19.5 4.49988C20.33 5.32988 20.33 6.66988 19.5 7.49988Z" fill="#FED576"/>
<path d="M17.3099 9.7002L6.49994 20.5002C5.66994 21.3302 4.32994 21.3302 3.49994 20.5002C2.66994 19.6702 2.66994 18.3302 3.49994 17.5002L14.3099 6.7002L17.3099 9.7002Z" fill="#FED576"/>
<path d="M9.95002 3.49953L10.36 2.10953C10.4 1.97953 10.36 1.83953 10.27 1.73953C10.18 1.63953 10.02 1.59953 9.89002 1.63953L8.50002 2.04953L7.11002 1.63953C6.98002 1.59953 6.84002 1.63953 6.74002 1.72953C6.64002 1.82953 6.61002 1.96953 6.65002 2.09953L7.05002 3.49953L6.64002 4.88953C6.60002 5.01953 6.64002 5.15953 6.73002 5.25953C6.83002 5.35953 6.97002 5.38953 7.10002 5.34953L8.50002 4.94953L9.89002 5.35953C9.93002 5.36953 9.96002 5.37953 10 5.37953C10.1 5.37953 10.19 5.33953 10.27 5.26953C10.37 5.16953 10.4 5.02953 10.36 4.89953L9.95002 3.49953Z" fill="#FED576"/>
<path d="M5.95002 9.49953L6.36002 8.10953C6.40002 7.97953 6.36002 7.83953 6.27002 7.73953C6.17002 7.63953 6.03002 7.60953 5.90002 7.64953L4.50002 8.04953L3.11002 7.63953C2.98002 7.59953 2.84002 7.63953 2.74002 7.72953C2.64002 7.82953 2.61002 7.96953 2.65002 8.09953L3.05002 9.49953L2.64002 10.8895C2.60002 11.0195 2.64002 11.1595 2.73002 11.2595C2.83002 11.3595 2.97002 11.3895 3.10002 11.3495L4.49002 10.9395L5.88002 11.3495C5.91002 11.3595 5.95002 11.3595 5.99002 11.3595C6.09002 11.3595 6.18002 11.3195 6.26002 11.2495C6.36002 11.1495 6.39002 11.0095 6.35002 10.8795L5.95002 9.49953Z" fill="#FED576"/>
<path d="M20.95 14.5L21.36 13.11C21.4 12.98 21.36 12.84 21.27 12.74C21.17 12.64 21.03 12.61 20.9 12.65L19.51 13.06L18.12 12.65C17.99 12.61 17.85 12.65 17.75 12.74C17.65 12.84 17.62 12.98 17.66 13.11L18.07 14.5L17.66 15.89C17.62 16.02 17.66 16.16 17.75 16.26C17.85 16.36 17.99 16.39 18.12 16.35L19.51 15.94L20.9 16.35C20.93 16.36 20.97 16.36 21.01 16.36C21.11 16.36 21.2 16.32 21.28 16.25C21.38 16.15 21.41 16.01 21.37 15.88L20.95 14.5Z" fill="#FED576"/>
</svg>
