<svg width="24" height="24" viewBox="0 0 24 24" fill="none" xmlns="http://www.w3.org/2000/svg">
<path d="M10.2944 18.8364H11.0444V22.9643H10.2944V18.8364ZM20.6041 6.1052L21.6274 5.48738L20.6046 4.87051L21.3546 3.94238L20.1827 3.71363L20.5694 2.58301L19.3887 2.77051L19.3671 1.57566L18.3227 2.15176L17.8924 1.03613L17.1096 1.93801L16.323 1.03613L15.8908 2.15176L14.8455 1.57473L14.824 2.76957L13.6432 2.58207L14.0299 3.7127L12.858 3.94145L13.608 4.86957L12.5847 5.48738L13.608 6.10332H15.1741L16.5471 9.68176L17.1096 9.03676L17.8943 9.93863L18.3241 8.82488L19.3694 9.40191L19.391 8.20707L20.5718 8.39457L20.1837 7.26113L21.3555 7.03238L20.6041 6.1052ZM8.67209 8.27598H4.40646L5.85959 12.0658H10.1252L8.67209 8.27598ZM13.7463 8.27598H9.48068L10.931 12.0658H15.1966L13.7463 8.27598ZM10.4271 12.8425H6.16146L7.61178 16.6324H11.8774L10.4271 12.8425ZM15.5013 12.8425H11.2357L12.686 16.6324H16.9516L15.5013 12.8425ZM18.9649 18.0864H6.67334L2.37256 6.85332H14.6585L18.9649 18.0864ZM18.0419 17.3833L16.0118 12.0925L14.2643 7.52598H3.31803L7.09006 17.3824H18.0438L18.0419 17.3833Z" fill="#9B51E0"/>
</svg>
