<svg width="24" height="24" viewBox="0 0 24 24" fill="none" xmlns="http://www.w3.org/2000/svg">
<g clip-path="url(#clip0_662_7149)">
<path d="M23.7 2.1L12.9375 0L4.34998 2.8125L7.12498 7.8375L23.9625 2.325C23.8875 2.2125 23.8125 2.1375 23.7 2.1Z" fill="#B9B9BF"/>
<path d="M23.9625 2.3252L7.125 7.8377L12.8625 18.2627L15.4125 22.8752L23.6625 20.1002C23.6625 20.1002 23.9625 20.0252 23.9625 19.8377V2.5127C24 2.4377 23.9625 2.4002 23.9625 2.3252Z" fill="#898A90"/>
<path d="M15.5625 22.6129C15.5625 22.8004 15.4125 22.9128 15.2625 22.8753L4.49998 20.7379C4.31248 20.7003 4.16248 20.5504 4.16248 20.3629V3.07535C4.16248 2.88785 4.31248 2.77535 4.49998 2.81285L15.225 4.91285C15.4125 4.95035 15.525 5.10035 15.525 5.28785V22.6129H15.5625Z" fill="#9FA1A6"/>
<path d="M5.32495 12.825C5.32495 12.6375 5.47495 12.525 5.62495 12.5625L14.0999 14.25C14.2874 14.2875 14.4 14.4375 14.4 14.625V21.15C14.4 21.3375 14.2499 21.45 14.0999 21.4125L5.62495 19.725C5.43745 19.6875 5.32495 19.5375 5.32495 19.35V12.825ZM14.4375 13.0875C14.4375 13.2375 14.2875 13.35 14.1375 13.3125L5.66245 11.625C5.47495 11.5875 5.36245 11.4375 5.36245 11.25C5.36245 11.0625 5.51245 10.9875 5.66245 11.025L14.1375 12.7125C14.2875 12.75 14.4375 12.9375 14.4375 13.0875Z" fill="#3E4347"/>
<path d="M5.32495 4.42496C5.32495 4.23746 5.47495 4.12496 5.62495 4.16246L14.1 5.84996C14.2875 5.88746 14.4 6.03746 14.4 6.22496V12.75C14.4 12.9375 14.25 13.05 14.1 13.0125L5.62495 11.325C5.43745 11.2875 5.32495 11.1375 5.32495 10.95V4.42496Z" fill="#D0D0D0"/>
<path d="M8.73755 9.8623V10.1623C8.73755 10.3123 8.88755 10.4998 9.03755 10.5373L10.6875 10.8748C10.875 10.9123 11.025 10.7998 11.025 10.6498V10.3498L8.73755 9.8623Z" fill="#3E4347"/>
<path d="M11.025 10.3128C11.025 10.5003 10.875 10.6128 10.6875 10.5753L9.03755 10.2378C8.85005 10.2003 8.73755 10.0503 8.73755 9.86285V8.70035C8.73755 8.51285 8.88755 8.40035 9.03755 8.43785L10.6875 8.77535C10.875 8.81285 11.025 8.96285 11.025 9.15035V10.3128Z" fill="#94989B"/>
<path d="M10.8 9.48751C10.8 9.56251 10.725 9.63751 10.65 9.60001L10.35 9.52501C10.275 9.52501 10.2 9.41251 10.2 9.33751V9.03751C10.2 8.96251 10.275 8.88751 10.35 8.92501L10.65 9.00001C10.725 9.00001 10.8 9.11251 10.8 9.18751V9.48751Z" fill="#D0D0D0"/>
<path d="M4.46252 12.4121L13.05 13.3496L12.7875 21.4496L4.80002 19.6496L4.46252 12.4121Z" fill="#42ADE2"/>
<path d="M6.03755 11.7373L12.7875 17.0998L9.52505 19.6498L2.73755 18.1498L6.03755 11.7373Z" fill="#FFCE31"/>
<path d="M2.625 12.6748L10.8 15.4123L9.8625 19.6498H1.6875L2.625 12.6748Z" fill="#83BF4F"/>
<path d="M1.01245 15.4879L9.63745 15.3379L11.4 21.4504L2.73745 22.2004L1.01245 15.4879Z" fill="#ED4C5C"/>
<path d="M14.4375 21.1879L9 23.6254V21.3379L14.4375 18.9004V21.1879Z" fill="#898A90"/>
<path d="M9.1125 23.7379C9.1125 23.8879 8.9625 24.0004 8.775 23.9629L0.3 22.3129C0.15 22.2754 0 22.1254 0 21.9754C0 21.8254 0.15 21.7129 0.3 21.7504L8.775 23.4379C8.9625 23.4379 9.1125 23.5879 9.1125 23.7379Z" fill="#3E4347"/>
<path d="M0 15.1125C0 14.925 0.15 14.8125 0.3 14.85L8.775 16.5C8.9625 16.5375 9.1125 16.6875 9.1125 16.875V23.4C9.1125 23.5875 8.9625 23.7 8.775 23.6625L0.3 22.0125C0.1125 21.975 0 21.825 0 21.6375V15.1125Z" fill="#D0D0D0"/>
<path d="M5.69998 20.9627L3.41248 20.5127V20.8127C3.41248 20.9627 3.56248 21.1127 3.71248 21.1502L5.36248 21.4877C5.54998 21.5252 5.66248 21.4127 5.66248 21.2627L5.69998 20.9627Z" fill="#3E4347"/>
<path d="M5.69998 20.9623C5.69998 21.1498 5.54998 21.2623 5.39998 21.2248L3.74998 20.8873C3.56248 20.8498 3.41248 20.6998 3.41248 20.5123V19.3498C3.41248 19.1623 3.56248 19.0498 3.74998 19.0873L5.39998 19.4248C5.58748 19.4623 5.69998 19.6123 5.69998 19.7998V20.9623Z" fill="#94989B"/>
<path d="M5.475 20.1746C5.475 20.2496 5.4 20.3246 5.325 20.2871L5.025 20.2496C4.95 20.2496 4.875 20.1371 4.875 20.0621V19.7621C4.875 19.6871 4.95 19.6121 5.025 19.6496L5.325 19.7246C5.4 19.7246 5.475 19.8371 5.475 19.9121V20.1746Z" fill="#D0D0D0"/>
</g>
<defs>
<clipPath id="clip0_662_7149">
<rect width="24" height="24" fill="white"/>
</clipPath>
</defs>
</svg>
