<svg width="33" height="32" viewBox="0 0 33 32" fill="none" xmlns="http://www.w3.org/2000/svg">
<path d="M26.3333 10L24.3467 11.9867L20.3467 7.98667L22.3333 6.00001C22.8933 5.44001 23.6133 5.17334 24.3333 5.17334C25.0533 5.17334 25.7733 5.44001 26.3333 6.00001C27.44 7.10667 27.44 8.89334 26.3333 10Z" fill="#0097CE"/>
<path d="M23.4134 12.9333L9.00004 27.3333C7.89338 28.44 6.10671 28.44 5.00004 27.3333C3.89338 26.2267 3.89338 24.44 5.00004 23.3333L19.4134 8.93335L23.4134 12.9333Z" fill="#0097CE"/>
<path d="M13.6 4.66669L14.1467 2.81336C14.2 2.64002 14.1467 2.45336 14.0267 2.32002C13.9067 2.18669 13.6934 2.13336 13.52 2.18669L11.6667 2.73336L9.81336 2.18669C9.64002 2.13336 9.45336 2.18669 9.32002 2.30669C9.18669 2.44002 9.14669 2.62669 9.20002 2.80002L9.73336 4.66669L9.18669 6.52002C9.13336 6.69336 9.18669 6.88002 9.30669 7.01336C9.44002 7.14669 9.62669 7.18669 9.80002 7.13336L11.6667 6.60002L13.52 7.14669C13.5734 7.16002 13.6134 7.17336 13.6667 7.17336C13.8 7.17336 13.92 7.12002 14.0267 7.02669C14.16 6.89336 14.2 6.70669 14.1467 6.53336L13.6 4.66669Z" fill="#0097CE"/>
<path d="M8.26665 12.6667L8.81331 10.8134C8.86665 10.64 8.81331 10.4534 8.69331 10.32C8.55998 10.1867 8.37331 10.1467 8.19998 10.2L6.33331 10.7334L4.47998 10.1867C4.30665 10.1334 4.11998 10.1867 3.98665 10.3067C3.85332 10.44 3.81332 10.6267 3.86665 10.8L4.39998 12.6667L3.85332 14.52C3.79998 14.6934 3.85332 14.88 3.97332 15.0134C4.10665 15.1467 4.29331 15.1867 4.46665 15.1334L6.31998 14.5867L8.17331 15.1334C8.21331 15.1467 8.26665 15.1467 8.31998 15.1467C8.45331 15.1467 8.57331 15.0934 8.67998 15C8.81331 14.8667 8.85331 14.68 8.79998 14.5067L8.26665 12.6667Z" fill="#0097CE"/>
<path d="M28.2667 19.3333L28.8134 17.48C28.8667 17.3067 28.8134 17.12 28.6934 16.9867C28.56 16.8533 28.3734 16.8133 28.2 16.8667L26.3467 17.4133L24.4934 16.8667C24.32 16.8133 24.1334 16.8667 24 16.9867C23.8667 17.12 23.8267 17.3067 23.88 17.48L24.4267 19.3333L23.88 21.1867C23.8267 21.36 23.88 21.5467 24 21.68C24.1334 21.8133 24.32 21.8533 24.4934 21.8L26.3467 21.2533L28.2 21.8C28.24 21.8133 28.2934 21.8133 28.3467 21.8133C28.48 21.8133 28.6 21.76 28.7067 21.6667C28.84 21.5333 28.88 21.3467 28.8267 21.1733L28.2667 19.3333Z" fill="#0097CE"/>
</svg>
