<svg width="20" height="23" viewBox="0 0 20 23" fill="none" xmlns="http://www.w3.org/2000/svg">
<path d="M12 0.75C12 0.551088 12.079 0.360322 12.2197 0.21967C12.3603 0.0790176 12.5511 0 12.75 0L18.75 0C18.9489 0 19.1397 0.0790176 19.2803 0.21967C19.421 0.360322 19.5 0.551088 19.5 0.75V8.25C19.5 8.44891 19.421 8.63968 19.2803 8.78033C19.1397 8.92098 18.9489 9 18.75 9H16.5V21.75C16.5 21.9489 16.421 22.1397 16.2803 22.2803C16.1397 22.421 15.9489 22.5 15.75 22.5C15.5511 22.5 15.3603 22.421 15.2197 22.2803C15.079 22.1397 15 21.9489 15 21.75V9H12.75C12.5511 9 12.3603 8.92098 12.2197 8.78033C12.079 8.63968 12 8.44891 12 8.25V0.75ZM4.9785 3H10.5V4.5H4.9785C4.61387 4.49992 4.2617 4.63265 3.98783 4.87339C3.71397 5.11412 3.53717 5.44637 3.4905 5.808L3.078 9H10.6275C10.7827 9.43887 11.0701 9.81881 11.4503 10.0875C11.8304 10.3561 12.2845 10.5002 12.75 10.5H13.5V12.441C13.3305 12.3803 13.1488 12.3614 12.9704 12.3857C12.7919 12.41 12.622 12.477 12.4749 12.5808C12.3278 12.6847 12.2078 12.8224 12.1252 12.9824C12.0425 13.1424 11.9996 13.3199 12 13.5C12.0003 13.6798 12.0436 13.857 12.1265 14.0166C12.2093 14.1762 12.3292 14.3137 12.4762 14.4174C12.6231 14.5211 12.7927 14.5881 12.9709 14.6127C13.149 14.6374 13.3304 14.6189 13.5 14.559V18H2.25C1.65326 18 1.08097 17.7629 0.65901 17.341C0.237053 16.919 2.45703e-08 16.3467 2.45703e-08 15.75V11.25C-7.00847e-05 10.7755 0.1499 10.313 0.428468 9.92886C0.707035 9.54469 1.09994 9.25842 1.551 9.111L1.566 9H0.75C0.551088 9 0.360322 8.92098 0.21967 8.78033C0.0790178 8.63968 2.45703e-08 8.44891 2.45703e-08 8.25C2.45703e-08 8.05109 0.0790178 7.86032 0.21967 7.71967C0.360322 7.57902 0.551088 7.5 0.75 7.5H1.7595L2.0025 5.616C2.09588 4.89249 2.44969 4.22779 2.99773 3.74628C3.54577 3.26478 4.25048 2.99947 4.98 3M4.875 14.6235C5.02254 14.6235 5.16864 14.5944 5.30494 14.538C5.44125 14.4815 5.56511 14.3988 5.66943 14.2944C5.77376 14.1901 5.85652 14.0663 5.91298 13.9299C5.96944 13.7936 5.9985 13.6475 5.9985 13.5C5.9985 13.3525 5.96944 13.2064 5.91298 13.0701C5.85652 12.9337 5.77376 12.8099 5.66943 12.7056C5.56511 12.6012 5.44125 12.5185 5.30494 12.462C5.16864 12.4056 5.02254 12.3765 4.875 12.3765C4.57703 12.3765 4.29126 12.4949 4.08057 12.7056C3.86987 12.9163 3.7515 13.202 3.7515 13.5C3.7515 13.798 3.86987 14.0837 4.08057 14.2944C4.29126 14.5051 4.57703 14.6235 4.875 14.6235ZM4.5 19.5H2.25V19.875C2.25 20.1734 2.36853 20.4595 2.5795 20.6705C2.79048 20.8815 3.07663 21 3.375 21C3.67337 21 3.95952 20.8815 4.1705 20.6705C4.38147 20.4595 4.5 20.1734 4.5 19.875V19.5Z" fill="#005574"/>
</svg>
