<svg width="23" height="19" viewBox="0 0 23 19" fill="none" xmlns="http://www.w3.org/2000/svg">
<path d="M13.79 0.0195312C8.64001 0.0195312 4.59001 2.19953 4.59001 5.08953V5.78953C4.59001 8.59953 8.65001 10.8595 13.79 10.8595C18.93 10.8595 22.99 8.67953 22.99 5.78953V5.08953C22.99 2.27953 18.94 0.0195312 13.79 0.0195312ZM13.79 9.99953C9.19001 9.99953 5.37001 8.04953 5.37001 5.70953C5.37001 3.36953 9.27001 1.41953 13.79 1.41953C18.31 1.41953 22.21 3.44953 22.21 5.78953C22.21 8.12953 18.39 9.99953 13.79 9.99953ZM13.79 9.21953C17.07 9.21953 19.87 7.81953 19.72 6.01953C19.72 5.85953 19.72 5.70953 19.64 5.46953C19.33 3.98953 16.83 2.89953 13.71 2.89953C10.59 2.89953 8.46001 4.08953 7.87001 5.19953C7.63001 5.64953 7.53001 6.84953 8.29001 7.57953C9.41001 8.64953 11.84 9.21953 13.79 9.21953ZM13.79 3.67953C16.75 3.67953 18.86 4.76953 18.94 5.78953C18.78 6.87953 16.76 8.04953 13.79 8.04953C10.82 8.04953 8.72001 6.87953 8.64001 5.78953C8.72001 4.76953 10.83 3.67953 13.79 3.67953ZM8.58001 11.7395C5.91001 11.7395 4.08001 12.7595 3.58001 13.7095C3.37001 14.0895 3.29001 15.1295 3.94001 15.7495C4.90001 16.6695 6.98001 17.1495 8.65001 17.1495C11.46 17.1495 13.86 15.9495 13.73 14.4095C13.73 14.2795 13.73 14.1395 13.66 13.9395C13.39 12.6695 11.25 11.7395 8.58001 11.7395ZM8.64001 16.1395C6.10001 16.1395 4.30001 15.1395 4.23001 14.1995C4.30001 13.3295 6.10001 12.3995 8.64001 12.3995C11.18 12.3995 12.98 13.3395 13.05 14.1995C12.92 15.1395 11.18 16.1395 8.64001 16.1395ZM14.16 11.8495C15.21 12.4995 15.85 13.3295 15.85 14.2095C15.85 16.2095 12.58 17.8195 8.64001 17.8195C4.70001 17.8195 1.43001 16.1495 1.43001 14.1495C1.43001 12.3695 4.06001 10.8595 7.36001 10.5395C6.76001 10.2495 6.22001 9.92953 5.75001 9.56953C2.81001 10.1895 0.76001 11.7195 0.76001 13.6195V14.2195C0.76001 16.6195 4.23001 18.5595 8.64001 18.5595C13.05 18.5595 16.52 16.6895 16.52 14.2195V13.6195C16.52 12.9495 16.25 12.3295 15.77 11.7595C15.25 11.8095 14.71 11.8395 14.16 11.8495Z" fill="black"/>
</svg>
