<svg width="28" height="26" viewBox="0 0 28 26" fill="none" xmlns="http://www.w3.org/2000/svg">
<path d="M15.1532 0.994963C14.6394 0.109428 13.3606 0.109425 12.8467 0.994962L9.22798 7.23137C8.97414 7.66882 8.53541 7.96734 8.03533 8.04287L1.25358 9.06717C0.114532 9.23921 -0.285014 10.6774 0.60206 11.4123L5.65418 15.5979C6.12184 15.9854 6.34173 16.5965 6.22813 17.1931L4.90657 24.1333C4.69766 25.2304 5.84938 26.0828 6.83757 25.5625L13.2235 22.2001C13.7095 21.9441 14.2904 21.9441 14.7765 22.2001L21.1623 25.5625C22.1505 26.0828 23.3023 25.2304 23.0933 24.1333L21.7718 17.1931C21.6582 16.5965 21.8781 15.9854 22.3457 15.5979L27.3979 11.4123C28.2849 10.6774 27.8854 9.23921 26.7463 9.06717L19.9646 8.04287C19.4645 7.96734 19.0258 7.66882 18.7719 7.23137L15.1532 0.994963Z" fill="#F2B62D"/>
</svg>
