<svg width="24" height="24" viewBox="0 0 24 24" fill="none" xmlns="http://www.w3.org/2000/svg">
<g clip-path="url(#clip0_291_7225)">
<path d="M12.3725 0.157453C12.3257 0.107716 12.2692 0.0680863 12.2065 0.041007C12.1438 0.0139277 12.0763 -2.79422e-05 12.008 4.20027e-08C11.8613 4.20027e-08 11.7298 0.0632813 11.638 0.1635L6.82141 4.26684L7.11766 4.61461L12.0086 0.44775L16.9407 4.61508L17.2355 4.26633L12.3725 0.157453Z" fill="#E0E0E0"/>
<path d="M20.3558 20.3948C20.2121 20.2696 20.2111 20.0469 20.3527 19.9193C20.7645 19.5481 21.0234 19.0107 21.0234 18.4126C21.0234 17.8082 20.759 17.266 20.3398 16.8944C20.1971 16.768 20.1971 16.5453 20.3398 16.4189C20.759 16.0473 21.0234 15.5051 21.0234 14.9008C21.0234 14.2965 20.759 13.7542 20.3398 13.3826C20.1971 13.2562 20.1971 13.0336 20.3398 12.9071C20.759 12.5356 21.0234 11.9933 21.0234 11.389C21.0234 10.7847 20.759 10.2424 20.3398 9.87085C20.1971 9.74443 20.1971 9.52177 20.3398 9.39535C20.759 9.02377 21.0234 8.48152 21.0234 7.87721C21.0234 7.28527 20.7699 6.75268 20.3655 6.3818C20.225 6.25299 20.227 6.03034 20.3717 5.90635C20.806 5.53435 21.0814 4.98212 21.0814 4.36543C21.0814 3.79782 20.848 3.28491 20.4723 2.91666C20.1041 2.54096 19.5912 2.30762 19.0236 2.30762C18.4512 2.30762 17.9345 2.5448 17.5658 2.92604C17.5272 2.96614 17.4809 2.99804 17.4296 3.01983C17.3784 3.04162 17.3233 3.05285 17.2676 3.05285C17.212 3.05285 17.1569 3.04162 17.1057 3.01983C17.0544 2.99804 17.0081 2.96614 16.9695 2.92604C16.6008 2.54476 16.0841 2.30762 15.5117 2.30762C14.9394 2.30762 14.4227 2.5448 14.054 2.92609C14.0154 2.96619 13.969 2.99809 13.9178 3.01987C13.8666 3.04166 13.8115 3.05289 13.7558 3.05289C13.7002 3.05289 13.6451 3.04166 13.5938 3.01987C13.5426 2.99809 13.4963 2.96619 13.4577 2.92609C13.089 2.5448 12.5723 2.30766 12 2.30766C11.3957 2.30766 10.8534 2.57209 10.4819 2.99134C10.3554 3.13402 10.1328 3.13402 10.0064 2.99134C9.63478 2.57209 9.09253 2.30766 8.48822 2.30766C7.88663 2.30766 7.34649 2.5697 6.97505 2.98566C6.85327 3.12207 6.64317 3.13088 6.51272 3.00273L6.4252 2.91676C6.03642 2.5201 5.48639 2.28207 4.88091 2.30987C3.84244 2.35754 2.99747 3.20251 2.94975 4.24102C2.92195 4.84646 3.15999 5.39654 3.55664 5.78532C3.58206 5.81125 3.60817 5.83651 3.63492 5.86107C3.77522 5.98984 3.77302 6.21235 3.62836 6.33624C3.19397 6.70824 2.91858 7.26052 2.91858 7.8773C2.91858 8.48162 3.18295 9.02387 3.60225 9.39545C3.74494 9.52187 3.74494 9.74452 3.60225 9.87094C3.183 10.2425 2.91858 10.7848 2.91858 11.3891C2.91858 11.9934 3.18295 12.5356 3.60225 12.9072C3.74494 13.0336 3.74494 13.2563 3.60225 13.3827C3.183 13.7543 2.91858 14.2966 2.91858 14.9009C2.91858 15.5052 3.18295 16.0474 3.60225 16.419C3.74494 16.5454 3.74494 16.7681 3.60225 16.8945C3.183 17.2661 2.91858 17.8083 2.91858 18.4126C2.91858 19.017 3.18295 19.5592 3.60225 19.9308C3.74494 20.0572 3.74494 20.2799 3.60225 20.4063C3.183 20.7779 2.91858 21.3201 2.91858 21.9244C2.91858 23.0449 3.82692 23.9533 4.94742 23.9533C4.9523 23.9533 4.95708 23.9529 4.96191 23.9529C4.96674 23.9529 4.97152 23.9533 4.97639 23.9533C5.5807 23.9533 6.12295 23.6889 6.49453 23.2696C6.62095 23.1269 6.84361 23.1269 6.97003 23.2696C7.34161 23.6889 7.88386 23.9533 8.48817 23.9533C9.09248 23.9533 9.63474 23.6889 10.0063 23.2696C10.1327 23.1269 10.3554 23.1269 10.4818 23.2696C10.8534 23.6889 11.3956 23.9533 12 23.9533C12.6043 23.9533 13.1465 23.6889 13.5181 23.2696C13.6445 23.1269 13.8672 23.1269 13.9936 23.2696C14.3652 23.6889 14.9074 23.9533 15.5117 23.9533C16.1094 23.9533 16.6466 23.6948 17.0178 23.2835C17.1436 23.1442 17.3627 23.1442 17.4885 23.2835C17.8597 23.6947 18.3968 23.9533 18.9945 23.9533C18.9994 23.9533 19.0042 23.9529 19.009 23.9529C19.0139 23.9529 19.0186 23.9533 19.0235 23.9533C20.144 23.9533 21.0524 23.0449 21.0524 21.9244C21.0524 21.3138 20.7825 20.7666 20.3558 20.3948ZM15.5118 19.8954C14.7616 19.8954 14.1069 20.3029 13.7559 20.9084C13.4048 20.303 12.7502 19.8954 12 19.8954C11.2498 19.8954 10.5952 20.3029 10.2441 20.9084C9.89306 20.303 9.23845 19.8954 8.48822 19.8954C7.73799 19.8954 7.08338 20.3029 6.73233 20.9084C6.55141 20.5967 6.2911 20.3385 5.97792 20.1601C6.57539 19.807 6.97636 19.1568 6.97636 18.4126C6.97636 17.6624 6.56888 17.0077 5.96344 16.6567C6.56883 16.3056 6.97636 15.651 6.97636 14.9008C6.97636 14.1506 6.56888 13.4959 5.96344 13.1449C6.56883 12.7938 6.97636 12.1392 6.97636 11.389C6.97636 10.6388 6.56888 9.98415 5.96344 9.6331C6.56883 9.28205 6.97636 8.62744 6.97636 7.87721C6.97636 7.13893 6.58195 6.49294 5.99241 6.13796C6.3084 5.96139 6.5717 5.70389 6.75525 5.3919C7.1115 5.97563 7.75434 6.36535 8.48822 6.36535C9.23841 6.36535 9.89306 5.95787 10.2441 5.35243C10.5952 5.95782 11.2498 6.36535 12 6.36535C12.7502 6.36535 13.4048 5.95787 13.7559 5.35243C14.1069 5.95782 14.7616 6.36535 15.5118 6.36535C16.262 6.36535 16.9166 5.95787 17.2677 5.35243C17.3597 5.51116 17.4728 5.65674 17.6038 5.78523C17.7243 5.90835 17.86 6.01569 18.0076 6.10468C17.3862 6.45146 16.9657 7.11507 16.9657 7.87721C16.9657 8.6274 17.3732 9.28205 17.9786 9.6331C17.3732 9.98415 16.9657 10.6388 16.9657 11.389C16.9657 12.1392 17.3732 12.7938 17.9786 13.1449C17.3732 13.4959 16.9657 14.1505 16.9657 14.9008C16.9657 15.651 17.3732 16.3056 17.9786 16.6567C17.3732 17.0077 16.9657 17.6623 16.9657 18.4126C16.9657 19.1627 17.3732 19.8174 17.9786 20.1684C17.6803 20.3415 17.4307 20.5874 17.2532 20.8832C16.8987 20.2916 16.2516 19.8954 15.5118 19.8954Z" fill="#8E6049"/>
<path d="M18.3407 21.9241H5.65528C5.28038 21.9241 4.97644 21.6202 4.97644 21.2453V5.04408C4.97644 4.66917 5.28038 4.36523 5.65528 4.36523H18.3407C18.7156 4.36523 19.0196 4.66917 19.0196 5.04408V21.2453C19.0196 21.6202 18.7156 21.9241 18.3407 21.9241Z" fill="#76DFFF"/>
<path d="M4.97644 4.36523H11.2105V16.1838H4.97644V4.36523Z" fill="#009E83"/>
<path d="M11.2105 16.1836H19.0395V21.9239H11.2105V16.1836Z" fill="#FF473E"/>
<path d="M11.2105 10.8789H15.1151V16.1835H11.2105V10.8789Z" fill="#0074A8"/>
<path d="M15.1151 10.8789H19.0196V16.1835H15.1151V10.8789Z" fill="#FFB636"/>
</g>
<defs>
<clipPath id="clip0_291_7225">
<rect width="24" height="24" fill="white"/>
</clipPath>
</defs>
</svg>
